<svg height='300px' width='300px'  fill="#000000" xmlns="http://www.w3.org/2000/svg" xmlns:xlink="http://www.w3.org/1999/xlink" version="1.1" x="0px" y="0px" viewBox="0 0 100 100" enable-background="new 0 0 100 100" xml:space="preserve"><path fill="#000000" d="M49.609,2.168c-22.481,0-40.701,18.21-40.701,40.694c0,17.634,11.226,32.592,26.904,38.244l5.995,7.457  l7.408,9.207l7.404-9.207l5.671-7.049c16.256-5.328,28.013-20.604,28.013-38.652C90.303,20.378,72.074,2.168,49.609,2.168z   M49.608,75.842c-18.22,0-32.97-14.77-32.97-32.98c0-18.21,14.75-32.979,32.97-32.979c18.21-0.001,32.967,14.769,32.967,32.979  C82.575,61.072,67.818,75.842,49.608,75.842z"></path></svg>
